<svg width="25" height="24" viewBox="0 0 25 24" fill="none" xmlns="http://www.w3.org/2000/svg">
<path fill-rule="evenodd" clip-rule="evenodd" d="M13.2174 3.75077C12.8192 3.33063 12.1808 3.33063 11.7826 3.75077C11.2109 4.35394 10.5594 5.10776 10.0554 5.87118C9.53283 6.66283 9.25 7.34582 9.25 7.83331C9.25 9.74943 10.7336 11.25 12.5 11.25C14.2664 11.25 15.75 9.74943 15.75 7.83331C15.75 7.34582 15.4672 6.66283 14.9446 5.87118C14.4406 5.10776 13.7891 4.35394 13.2174 3.75077ZM10.6939 2.71893C11.6837 1.67458 13.3163 1.67458 14.3061 2.71893C14.9068 3.35269 15.6243 4.17818 16.1964 5.04481C16.7499 5.8832 17.25 6.88098 17.25 7.83331C17.25 10.5196 15.1519 12.75 12.5 12.75C9.84809 12.75 7.75 10.5196 7.75 7.83331C7.75 6.88098 8.25013 5.8832 8.80358 5.04481C9.37567 4.17818 10.0932 3.35269 10.6939 2.71893ZM7.21741 13.7508C6.81922 13.3306 6.18078 13.3306 5.78259 13.7508C5.21094 14.3539 4.55938 15.1078 4.05542 15.8712C3.53283 16.6628 3.25 17.3458 3.25 17.8333C3.25 19.7494 4.73364 21.25 6.5 21.25C8.26636 21.25 9.75 19.7494 9.75 17.8333C9.75 17.3458 9.46717 16.6628 8.94458 15.8712C8.44062 15.1078 7.78906 14.3539 7.21741 13.7508ZM4.69387 12.7189C5.68366 11.6746 7.31634 11.6746 8.30613 12.7189C8.90678 13.3527 9.62433 14.1782 10.1964 15.0448C10.7499 15.8832 11.25 16.881 11.25 17.8333C11.25 20.5196 9.15191 22.75 6.5 22.75C3.84809 22.75 1.75 20.5196 1.75 17.8333C1.75 16.881 2.25013 15.8832 2.80358 15.0448C3.37567 14.1782 4.09322 13.3527 4.69387 12.7189ZM19.2174 13.7508C18.8192 13.3306 18.1808 13.3306 17.7826 13.7508C17.2109 14.3539 16.5594 15.1078 16.0554 15.8712C15.5328 16.6628 15.25 17.3458 15.25 17.8333C15.25 19.7494 16.7336 21.25 18.5 21.25C20.2664 21.25 21.75 19.7494 21.75 17.8333C21.75 17.3458 21.4672 16.6628 20.9446 15.8712C20.4406 15.1078 19.7891 14.3539 19.2174 13.7508ZM16.6939 12.7189C17.6837 11.6746 19.3163 11.6746 20.3061 12.7189C20.9068 13.3527 21.6243 14.1782 22.1964 15.0448C22.7499 15.8832 23.25 16.881 23.25 17.8333C23.25 20.5196 21.1519 22.75 18.5 22.75C15.8481 22.75 13.75 20.5196 13.75 17.8333C13.75 16.881 14.2501 15.8832 14.8036 15.0448C15.3757 14.1782 16.0932 13.3527 16.6939 12.7189Z" fill="white" fill-opacity="0.6"/>
</svg>
